<svg preserveAspectRatio="none" overflow="visible" style="display: block;" width="15.9484" height="15.9483" viewBox="0 0 15.9484 15.9483" fill="none" xmlns="http://www.w3.org/2000/svg">
<g id="cic_tennis">
<path id="Path" fill-rule="evenodd" clip-rule="evenodd" d="M0 7.97411C0 3.57308 3.57308 0 7.97419 0C12.3753 0 15.9484 3.57308 15.9484 7.97419C15.9484 12.3752 12.3753 15.9483 7.97419 15.9483C3.57308 15.9483 0 12.3752 0 7.97411Z" fill="url(#paint0_radial_0_129)"/>
<path id="Path_2" d="M8.6314 1.41428C8.11991 1.77402 7.65049 1.98185 7.15372 2.20189C6.37867 2.54495 5.5003 2.93385 4.34968 3.93445C3.31028 4.83811 2.70951 6.15037 2.65798 7.62951C2.60387 9.18598 3.17359 10.6796 4.22108 11.7273C5.22305 12.729 6.63277 13.2938 8.11535 13.2938C8.18314 13.2938 8.25101 13.2926 8.31897 13.2903C9.79802 13.2387 11.1102 12.6379 12.0139 11.5987C13.0144 10.448 13.4034 9.56963 13.7462 8.79467C13.9664 8.29772 14.1742 7.8283 14.5339 7.3169C14.988 6.67166 15.4204 6.31312 15.7305 6.11742C15.6217 5.66149 15.4726 5.2161 15.2852 4.78649C14.7962 5.03794 14.1028 5.53806 13.4083 6.52499C12.9706 7.14718 12.7251 7.70151 12.4879 8.23768C12.1546 8.99037 11.8399 9.70133 10.9752 10.6956C10.3248 11.4438 9.36439 11.8767 8.27114 11.9148C7.09325 11.9539 5.97316 11.5327 5.19432 10.754C4.41566 9.97523 3.99243 8.85385 4.03346 7.67733C4.07157 6.584 4.50452 5.62357 5.25265 4.97308C6.24714 4.10839 6.95811 3.79355 7.71088 3.46039C8.2468 3.22305 8.80112 2.97763 9.4234 2.53996C10.4102 1.84559 10.9105 1.15217 11.1619 0.663312C10.7327 0.475875 10.2877 0.326932 9.83217 0.218237C9.63665 0.52628 9.27708 0.959914 8.6314 1.41428V1.41428Z" fill="url(#paint1_radial_0_129)"/>
<path id="Path_3" d="M9.83217 0.218237C9.63665 0.52628 9.27708 0.959914 8.6314 1.41419C8.12 1.77402 7.65058 1.98185 7.15372 2.20189C6.37875 2.54495 5.50039 2.93376 4.34968 3.93445C3.31037 4.83811 2.70951 6.15028 2.65798 7.62942C2.61626 8.82968 2.94675 9.99148 3.57996 10.9412C3.11665 10.0804 2.88043 9.08413 2.91604 8.05953C2.96757 6.58039 3.56843 5.26822 4.60774 4.36456C5.75845 3.36387 6.63682 2.97505 7.41179 2.632C7.90865 2.41196 8.37806 2.20413 8.88946 1.8443C9.808 1.19819 10.1474 0.593892 10.2593 0.332817C10.118 0.290622 9.97558 0.252413 9.83217 0.218237" fill="#D5D6DB"/>
<path id="Path_4" d="M13.4083 6.52499C12.9706 7.14718 12.7251 7.70151 12.4879 8.23768C12.1546 8.99037 11.8399 9.70133 10.9752 10.6956C10.3248 11.4438 9.36439 11.8767 8.27114 11.9148C7.09325 11.9539 5.97316 11.5327 5.19432 10.754C4.92301 10.4826 4.69609 10.1691 4.51578 9.82692C4.71131 10.4071 5.02864 10.9325 5.45247 11.3561C6.23114 12.1348 7.35123 12.556 8.5292 12.5169C9.62245 12.4789 10.5828 12.0458 11.2334 11.2977C12.0979 10.3035 12.4126 9.59252 12.7459 8.83983C12.9832 8.30374 13.2286 7.74933 13.6663 7.12714C14.3514 6.15346 15.0356 5.65359 15.5232 5.39897C15.4524 5.1916 15.373 4.98727 15.2852 4.78649C14.7962 5.03794 14.1028 5.53806 13.4083 6.52499V6.52499Z" fill="url(#paint2_radial_0_129)"/>
</g>
<defs>
<radialGradient id="paint0_radial_0_129" cx="0" cy="0" r="1" gradientUnits="userSpaceOnUse" gradientTransform="translate(5.13961 3.96714) rotate(-90) scale(15.0529 15.053)">
<stop stop-color="#DAE0AC"/>
<stop offset="0.12" stop-color="#DAE0AC"/>
<stop offset="0.24" stop-color="#CFE651"/>
<stop offset="0.33" stop-color="#C0E651"/>
<stop offset="0.41" stop-color="#B4E651"/>
<stop offset="0.63" stop-color="#90C22B"/>
<stop offset="0.73" stop-color="#80AD27"/>
<stop offset="0.83" stop-color="#ACDB4D"/>
<stop offset="1" stop-color="#ACDB4D"/>
</radialGradient>
<radialGradient id="paint1_radial_0_129" cx="0" cy="0" r="1" gradientUnits="userSpaceOnUse" gradientTransform="translate(10.6548 10.8851) scale(12.8981 12.8977)">
<stop stop-color="#D3D4D9"/>
<stop offset="0.28" stop-color="#DBDCE0"/>
<stop offset="0.79" stop-color="#F7F8FC"/>
<stop offset="1" stop-color="#F7F8FC"/>
</radialGradient>
<radialGradient id="paint2_radial_0_129" cx="0" cy="0" r="1" gradientUnits="userSpaceOnUse" gradientTransform="translate(8.29892 9.34108) scale(7.23956 5.08593)">
<stop stop-color="#A8A8A8"/>
<stop offset="0.39" stop-color="#A8A8A8"/>
<stop offset="1" stop-color="#D1D1D1"/>
</radialGradient>
</defs>
</svg>
